<mxfile host="app.diagrams.net" agent="Mozilla/5.0 (Windows NT 10.0; Win64; x64; rv:134.0) Gecko/20100101 Firefox/134.0" version="26.0.13">
  <diagram id="C5RBs43oDa-KdzZeNtuy" name="Page-1">
    <mxGraphModel dx="2154" dy="836" grid="1" gridSize="10" guides="1" tooltips="1" connect="1" arrows="1" fold="1" page="1" pageScale="1" pageWidth="827" pageHeight="1169" math="0" shadow="0">
      <root>
        <mxCell id="WIyWlLk6GJQsqaUBKTNV-0" />
        <mxCell id="WIyWlLk6GJQsqaUBKTNV-1" parent="WIyWlLk6GJQsqaUBKTNV-0" />
        <mxCell id="pb4MG57_TkeJyTTyKb9r-34" style="edgeStyle=orthogonalEdgeStyle;rounded=0;orthogonalLoop=1;jettySize=auto;html=1;entryX=0.5;entryY=0;entryDx=0;entryDy=0;endArrow=none;startFill=0;startArrow=none;endFill=1;" edge="1" parent="WIyWlLk6GJQsqaUBKTNV-1" source="pb4MG57_TkeJyTTyKb9r-0" target="pb4MG57_TkeJyTTyKb9r-29">
          <mxGeometry relative="1" as="geometry">
            <Array as="points">
              <mxPoint x="160" y="300" />
              <mxPoint x="270" y="300" />
            </Array>
          </mxGeometry>
        </mxCell>
        <mxCell id="pb4MG57_TkeJyTTyKb9r-0" value="&amp;lt;&amp;lt;Interface&amp;gt;&amp;gt; Reader" style="swimlane;fontStyle=1;align=center;verticalAlign=top;childLayout=stackLayout;horizontal=1;startSize=26;horizontalStack=0;resizeParent=1;resizeParentMax=0;resizeLast=0;collapsible=1;marginBottom=0;whiteSpace=wrap;html=1;" vertex="1" parent="WIyWlLk6GJQsqaUBKTNV-1">
          <mxGeometry x="80" y="210" width="170" height="70" as="geometry" />
        </mxCell>
        <mxCell id="pb4MG57_TkeJyTTyKb9r-2" value="" style="line;strokeWidth=1;fillColor=none;align=left;verticalAlign=middle;spacingTop=-1;spacingLeft=3;spacingRight=3;rotatable=0;labelPosition=right;points=[];portConstraint=eastwest;strokeColor=inherit;" vertex="1" parent="pb4MG57_TkeJyTTyKb9r-0">
          <mxGeometry y="26" width="170" height="8" as="geometry" />
        </mxCell>
        <mxCell id="pb4MG57_TkeJyTTyKb9r-3" value="+ readFile(Path: List&amp;lt;String&amp;gt; " style="text;strokeColor=none;fillColor=none;align=left;verticalAlign=top;spacingLeft=4;spacingRight=4;overflow=hidden;rotatable=0;points=[[0,0.5],[1,0.5]];portConstraint=eastwest;whiteSpace=wrap;html=1;" vertex="1" parent="pb4MG57_TkeJyTTyKb9r-0">
          <mxGeometry y="34" width="170" height="36" as="geometry" />
        </mxCell>
        <mxCell id="pb4MG57_TkeJyTTyKb9r-5" value="XlsxReader" style="swimlane;fontStyle=1;align=center;verticalAlign=top;childLayout=stackLayout;horizontal=1;startSize=26;horizontalStack=0;resizeParent=1;resizeParentMax=0;resizeLast=0;collapsible=1;marginBottom=0;whiteSpace=wrap;html=1;" vertex="1" parent="WIyWlLk6GJQsqaUBKTNV-1">
          <mxGeometry x="-40" y="90" width="160" height="34" as="geometry" />
        </mxCell>
        <mxCell id="pb4MG57_TkeJyTTyKb9r-7" value="" style="line;strokeWidth=1;fillColor=none;align=left;verticalAlign=middle;spacingTop=-1;spacingLeft=3;spacingRight=3;rotatable=0;labelPosition=right;points=[];portConstraint=eastwest;strokeColor=inherit;" vertex="1" parent="pb4MG57_TkeJyTTyKb9r-5">
          <mxGeometry y="26" width="160" height="8" as="geometry" />
        </mxCell>
        <mxCell id="pb4MG57_TkeJyTTyKb9r-10" style="edgeStyle=orthogonalEdgeStyle;rounded=0;orthogonalLoop=1;jettySize=auto;html=1;endArrow=block;endFill=0;dashed=1;" edge="1" parent="WIyWlLk6GJQsqaUBKTNV-1" source="pb4MG57_TkeJyTTyKb9r-5">
          <mxGeometry relative="1" as="geometry">
            <mxPoint x="159" y="210" as="targetPoint" />
          </mxGeometry>
        </mxCell>
        <mxCell id="pb4MG57_TkeJyTTyKb9r-35" style="edgeStyle=orthogonalEdgeStyle;rounded=0;orthogonalLoop=1;jettySize=auto;html=1;startArrow=none;startFill=0;endArrow=diamond;endFill=1;" edge="1" parent="WIyWlLk6GJQsqaUBKTNV-1" source="pb4MG57_TkeJyTTyKb9r-11" target="pb4MG57_TkeJyTTyKb9r-29">
          <mxGeometry relative="1" as="geometry" />
        </mxCell>
        <mxCell id="pb4MG57_TkeJyTTyKb9r-11" value="&amp;lt;&amp;lt;Interface&amp;gt;&amp;gt; Interpreter" style="swimlane;fontStyle=1;align=center;verticalAlign=top;childLayout=stackLayout;horizontal=1;startSize=26;horizontalStack=0;resizeParent=1;resizeParentMax=0;resizeLast=0;collapsible=1;marginBottom=0;whiteSpace=wrap;html=1;" vertex="1" parent="WIyWlLk6GJQsqaUBKTNV-1">
          <mxGeometry x="340" y="210" width="160" height="60" as="geometry" />
        </mxCell>
        <mxCell id="pb4MG57_TkeJyTTyKb9r-12" value="" style="line;strokeWidth=1;fillColor=none;align=left;verticalAlign=middle;spacingTop=-1;spacingLeft=3;spacingRight=3;rotatable=0;labelPosition=right;points=[];portConstraint=eastwest;strokeColor=inherit;" vertex="1" parent="pb4MG57_TkeJyTTyKb9r-11">
          <mxGeometry y="26" width="160" height="8" as="geometry" />
        </mxCell>
        <mxCell id="pb4MG57_TkeJyTTyKb9r-13" value="+ interpret(): T " style="text;strokeColor=none;fillColor=none;align=left;verticalAlign=top;spacingLeft=4;spacingRight=4;overflow=hidden;rotatable=0;points=[[0,0.5],[1,0.5]];portConstraint=eastwest;whiteSpace=wrap;html=1;" vertex="1" parent="pb4MG57_TkeJyTTyKb9r-11">
          <mxGeometry y="34" width="160" height="26" as="geometry" />
        </mxCell>
        <mxCell id="pb4MG57_TkeJyTTyKb9r-25" style="edgeStyle=orthogonalEdgeStyle;rounded=0;orthogonalLoop=1;jettySize=auto;html=1;exitX=0.5;exitY=1;exitDx=0;exitDy=0;entryX=0.5;entryY=0;entryDx=0;entryDy=0;endArrow=block;endFill=0;dashed=1;" edge="1" parent="WIyWlLk6GJQsqaUBKTNV-1" source="pb4MG57_TkeJyTTyKb9r-14" target="pb4MG57_TkeJyTTyKb9r-11">
          <mxGeometry relative="1" as="geometry">
            <Array as="points">
              <mxPoint x="620" y="160" />
              <mxPoint x="420" y="160" />
            </Array>
          </mxGeometry>
        </mxCell>
        <mxCell id="pb4MG57_TkeJyTTyKb9r-14" value="RoomInterpreter" style="swimlane;fontStyle=1;align=center;verticalAlign=top;childLayout=stackLayout;horizontal=1;startSize=26;horizontalStack=0;resizeParent=1;resizeParentMax=0;resizeLast=0;collapsible=1;marginBottom=0;whiteSpace=wrap;html=1;" vertex="1" parent="WIyWlLk6GJQsqaUBKTNV-1">
          <mxGeometry x="540" y="80" width="160" height="34" as="geometry" />
        </mxCell>
        <mxCell id="pb4MG57_TkeJyTTyKb9r-15" value="" style="line;strokeWidth=1;fillColor=none;align=left;verticalAlign=middle;spacingTop=-1;spacingLeft=3;spacingRight=3;rotatable=0;labelPosition=right;points=[];portConstraint=eastwest;strokeColor=inherit;" vertex="1" parent="pb4MG57_TkeJyTTyKb9r-14">
          <mxGeometry y="26" width="160" height="8" as="geometry" />
        </mxCell>
        <mxCell id="pb4MG57_TkeJyTTyKb9r-17" value="CompanyInterpreter" style="swimlane;fontStyle=1;align=center;verticalAlign=top;childLayout=stackLayout;horizontal=1;startSize=26;horizontalStack=0;resizeParent=1;resizeParentMax=0;resizeLast=0;collapsible=1;marginBottom=0;whiteSpace=wrap;html=1;" vertex="1" parent="WIyWlLk6GJQsqaUBKTNV-1">
          <mxGeometry x="210" y="74" width="160" height="34" as="geometry" />
        </mxCell>
        <mxCell id="pb4MG57_TkeJyTTyKb9r-18" value="" style="line;strokeWidth=1;fillColor=none;align=left;verticalAlign=middle;spacingTop=-1;spacingLeft=3;spacingRight=3;rotatable=0;labelPosition=right;points=[];portConstraint=eastwest;strokeColor=inherit;" vertex="1" parent="pb4MG57_TkeJyTTyKb9r-17">
          <mxGeometry y="26" width="160" height="8" as="geometry" />
        </mxCell>
        <mxCell id="pb4MG57_TkeJyTTyKb9r-26" style="edgeStyle=orthogonalEdgeStyle;rounded=0;orthogonalLoop=1;jettySize=auto;html=1;exitX=0.5;exitY=1;exitDx=0;exitDy=0;entryX=0.5;entryY=0;entryDx=0;entryDy=0;dashed=1;endArrow=block;endFill=0;" edge="1" parent="WIyWlLk6GJQsqaUBKTNV-1" source="pb4MG57_TkeJyTTyKb9r-21" target="pb4MG57_TkeJyTTyKb9r-11">
          <mxGeometry relative="1" as="geometry" />
        </mxCell>
        <mxCell id="pb4MG57_TkeJyTTyKb9r-21" value="&lt;div&gt;StudentInterpreter&lt;/div&gt;" style="swimlane;fontStyle=1;align=center;verticalAlign=top;childLayout=stackLayout;horizontal=1;startSize=26;horizontalStack=0;resizeParent=1;resizeParentMax=0;resizeLast=0;collapsible=1;marginBottom=0;whiteSpace=wrap;html=1;" vertex="1" parent="WIyWlLk6GJQsqaUBKTNV-1">
          <mxGeometry x="370" y="40" width="160" height="34" as="geometry" />
        </mxCell>
        <mxCell id="pb4MG57_TkeJyTTyKb9r-22" value="" style="line;strokeWidth=1;fillColor=none;align=left;verticalAlign=middle;spacingTop=-1;spacingLeft=3;spacingRight=3;rotatable=0;labelPosition=right;points=[];portConstraint=eastwest;strokeColor=inherit;" vertex="1" parent="pb4MG57_TkeJyTTyKb9r-21">
          <mxGeometry y="26" width="160" height="8" as="geometry" />
        </mxCell>
        <mxCell id="pb4MG57_TkeJyTTyKb9r-28" style="edgeStyle=orthogonalEdgeStyle;rounded=0;orthogonalLoop=1;jettySize=auto;html=1;dashed=1;endArrow=block;endFill=0;exitX=0.5;exitY=1;exitDx=0;exitDy=0;" edge="1" parent="WIyWlLk6GJQsqaUBKTNV-1" source="pb4MG57_TkeJyTTyKb9r-17">
          <mxGeometry relative="1" as="geometry">
            <mxPoint x="310" y="160" as="sourcePoint" />
            <mxPoint x="420" y="210" as="targetPoint" />
          </mxGeometry>
        </mxCell>
        <mxCell id="pb4MG57_TkeJyTTyKb9r-29" value="IOManager" style="swimlane;fontStyle=1;align=center;verticalAlign=top;childLayout=stackLayout;horizontal=1;startSize=26;horizontalStack=0;resizeParent=1;resizeParentMax=0;resizeLast=0;collapsible=1;marginBottom=0;whiteSpace=wrap;html=1;" vertex="1" parent="WIyWlLk6GJQsqaUBKTNV-1">
          <mxGeometry x="190" y="330" width="160" height="154" as="geometry" />
        </mxCell>
        <mxCell id="pb4MG57_TkeJyTTyKb9r-30" value="&lt;div&gt;- pathStudentFile:Path&lt;/div&gt;&lt;div&gt;- pathRoomFile: Path&lt;br&gt;&lt;/div&gt;&lt;div&gt;- pathCompanyFile: Path&lt;br&gt;&lt;/div&gt;&lt;div&gt;- reader: Reader&lt;/div&gt;&lt;div&gt;- writer: Writer&lt;/div&gt;&lt;div&gt;- interpreter: Interpreter&lt;br&gt;&lt;/div&gt;" style="text;strokeColor=none;fillColor=none;align=left;verticalAlign=top;spacingLeft=4;spacingRight=4;overflow=hidden;rotatable=0;points=[[0,0.5],[1,0.5]];portConstraint=eastwest;whiteSpace=wrap;html=1;" vertex="1" parent="pb4MG57_TkeJyTTyKb9r-29">
          <mxGeometry y="26" width="160" height="94" as="geometry" />
        </mxCell>
        <mxCell id="pb4MG57_TkeJyTTyKb9r-31" value="" style="line;strokeWidth=1;fillColor=none;align=left;verticalAlign=middle;spacingTop=-1;spacingLeft=3;spacingRight=3;rotatable=0;labelPosition=right;points=[];portConstraint=eastwest;strokeColor=inherit;" vertex="1" parent="pb4MG57_TkeJyTTyKb9r-29">
          <mxGeometry y="120" width="160" height="8" as="geometry" />
        </mxCell>
        <mxCell id="pb4MG57_TkeJyTTyKb9r-32" value="+ readFiles: BoomData" style="text;strokeColor=none;fillColor=none;align=left;verticalAlign=top;spacingLeft=4;spacingRight=4;overflow=hidden;rotatable=0;points=[[0,0.5],[1,0.5]];portConstraint=eastwest;whiteSpace=wrap;html=1;" vertex="1" parent="pb4MG57_TkeJyTTyKb9r-29">
          <mxGeometry y="128" width="160" height="26" as="geometry" />
        </mxCell>
        <mxCell id="pb4MG57_TkeJyTTyKb9r-36" value="Controller" style="swimlane;fontStyle=1;align=center;verticalAlign=top;childLayout=stackLayout;horizontal=1;startSize=30;horizontalStack=0;resizeParent=1;resizeParentMax=0;resizeLast=0;collapsible=1;marginBottom=0;whiteSpace=wrap;html=1;" vertex="1" parent="WIyWlLk6GJQsqaUBKTNV-1">
          <mxGeometry x="640" y="338" width="180" height="156" as="geometry" />
        </mxCell>
        <mxCell id="pb4MG57_TkeJyTTyKb9r-37" value="&lt;div&gt;- gui: GUI&lt;/div&gt;&lt;div&gt;- dataholder: DataHolder&lt;/div&gt;&lt;div&gt;- ioManager: IOManager&lt;/div&gt;&lt;div&gt;- roomManagementUnit: RoomManagementUnit:&lt;/div&gt;" style="text;strokeColor=none;fillColor=none;align=left;verticalAlign=top;spacingLeft=4;spacingRight=4;overflow=hidden;rotatable=0;points=[[0,0.5],[1,0.5]];portConstraint=eastwest;whiteSpace=wrap;html=1;" vertex="1" parent="pb4MG57_TkeJyTTyKb9r-36">
          <mxGeometry y="30" width="180" height="80" as="geometry" />
        </mxCell>
        <mxCell id="pb4MG57_TkeJyTTyKb9r-38" value="" style="line;strokeWidth=1;fillColor=none;align=left;verticalAlign=middle;spacingTop=-1;spacingLeft=3;spacingRight=3;rotatable=0;labelPosition=right;points=[];portConstraint=eastwest;strokeColor=inherit;" vertex="1" parent="pb4MG57_TkeJyTTyKb9r-36">
          <mxGeometry y="110" width="180" height="20" as="geometry" />
        </mxCell>
        <mxCell id="pb4MG57_TkeJyTTyKb9r-39" value="+ main: void" style="text;strokeColor=none;fillColor=none;align=left;verticalAlign=top;spacingLeft=4;spacingRight=4;overflow=hidden;rotatable=0;points=[[0,0.5],[1,0.5]];portConstraint=eastwest;whiteSpace=wrap;html=1;" vertex="1" parent="pb4MG57_TkeJyTTyKb9r-36">
          <mxGeometry y="130" width="180" height="26" as="geometry" />
        </mxCell>
        <mxCell id="pb4MG57_TkeJyTTyKb9r-144" style="edgeStyle=orthogonalEdgeStyle;rounded=0;orthogonalLoop=1;jettySize=auto;html=1;endArrow=none;startFill=0;" edge="1" parent="WIyWlLk6GJQsqaUBKTNV-1" source="pb4MG57_TkeJyTTyKb9r-40">
          <mxGeometry relative="1" as="geometry">
            <mxPoint x="630" y="400" as="targetPoint" />
            <Array as="points">
              <mxPoint x="506" y="400" />
            </Array>
          </mxGeometry>
        </mxCell>
        <mxCell id="pb4MG57_TkeJyTTyKb9r-40" value="BoomData" style="swimlane;fontStyle=1;align=center;verticalAlign=top;childLayout=stackLayout;horizontal=1;startSize=26;horizontalStack=0;resizeParent=1;resizeParentMax=0;resizeLast=0;collapsible=1;marginBottom=0;whiteSpace=wrap;html=1;" vertex="1" parent="WIyWlLk6GJQsqaUBKTNV-1">
          <mxGeometry x="337" y="572" width="340" height="108" as="geometry" />
        </mxCell>
        <mxCell id="pb4MG57_TkeJyTTyKb9r-41" value="&lt;div&gt;- rooms: Map&amp;lt;String, Room&amp;gt;&lt;/div&gt;&lt;div&gt;- blueprintPresentations: Map&amp;lt;String, Presentation&amp;gt;&lt;/div&gt;&lt;div&gt;- plannedPresentations: Map&amp;lt;String, PlannedPresentation&amp;gt;&lt;/div&gt;&lt;div&gt;- students: Map&amp;lt;String, Student&amp;gt;&lt;br&gt;&lt;/div&gt;" style="text;strokeColor=none;fillColor=none;align=left;verticalAlign=top;spacingLeft=4;spacingRight=4;overflow=hidden;rotatable=0;points=[[0,0.5],[1,0.5]];portConstraint=eastwest;whiteSpace=wrap;html=1;" vertex="1" parent="pb4MG57_TkeJyTTyKb9r-40">
          <mxGeometry y="26" width="340" height="74" as="geometry" />
        </mxCell>
        <mxCell id="pb4MG57_TkeJyTTyKb9r-42" value="" style="line;strokeWidth=1;fillColor=none;align=left;verticalAlign=middle;spacingTop=-1;spacingLeft=3;spacingRight=3;rotatable=0;labelPosition=right;points=[];portConstraint=eastwest;strokeColor=inherit;" vertex="1" parent="pb4MG57_TkeJyTTyKb9r-40">
          <mxGeometry y="100" width="340" height="8" as="geometry" />
        </mxCell>
        <mxCell id="pb4MG57_TkeJyTTyKb9r-44" value="Room" style="swimlane;fontStyle=1;align=center;verticalAlign=top;childLayout=stackLayout;horizontal=1;startSize=26;horizontalStack=0;resizeParent=1;resizeParentMax=0;resizeLast=0;collapsible=1;marginBottom=0;whiteSpace=wrap;html=1;" vertex="1" parent="WIyWlLk6GJQsqaUBKTNV-1">
          <mxGeometry x="466" y="950" width="280" height="68" as="geometry" />
        </mxCell>
        <mxCell id="pb4MG57_TkeJyTTyKb9r-45" value="&lt;div&gt;- roomNumber: String&lt;/div&gt;&lt;div&gt;- capacity: int&lt;br&gt;&lt;/div&gt;&lt;span style=&quot;white-space: pre;&quot;&gt;&lt;/span&gt;" style="text;strokeColor=none;fillColor=none;align=left;verticalAlign=top;spacingLeft=4;spacingRight=4;overflow=hidden;rotatable=0;points=[[0,0.5],[1,0.5]];portConstraint=eastwest;whiteSpace=wrap;html=1;" vertex="1" parent="pb4MG57_TkeJyTTyKb9r-44">
          <mxGeometry y="26" width="280" height="34" as="geometry" />
        </mxCell>
        <mxCell id="pb4MG57_TkeJyTTyKb9r-46" value="" style="line;strokeWidth=1;fillColor=none;align=left;verticalAlign=middle;spacingTop=-1;spacingLeft=3;spacingRight=3;rotatable=0;labelPosition=right;points=[];portConstraint=eastwest;strokeColor=inherit;" vertex="1" parent="pb4MG57_TkeJyTTyKb9r-44">
          <mxGeometry y="60" width="280" height="8" as="geometry" />
        </mxCell>
        <mxCell id="pb4MG57_TkeJyTTyKb9r-153" style="edgeStyle=orthogonalEdgeStyle;rounded=0;orthogonalLoop=1;jettySize=auto;html=1;entryX=0.5;entryY=1;entryDx=0;entryDy=0;endArrow=block;endFill=0;" edge="1" parent="WIyWlLk6GJQsqaUBKTNV-1" source="pb4MG57_TkeJyTTyKb9r-54" target="pb4MG57_TkeJyTTyKb9r-86">
          <mxGeometry relative="1" as="geometry">
            <Array as="points">
              <mxPoint x="295" y="860" />
              <mxPoint x="125" y="860" />
            </Array>
          </mxGeometry>
        </mxCell>
        <mxCell id="pb4MG57_TkeJyTTyKb9r-54" value="PlannedPresentation" style="swimlane;fontStyle=1;align=center;verticalAlign=top;childLayout=stackLayout;horizontal=1;startSize=26;horizontalStack=0;resizeParent=1;resizeParentMax=0;resizeLast=0;collapsible=1;marginBottom=0;whiteSpace=wrap;html=1;" vertex="1" parent="WIyWlLk6GJQsqaUBKTNV-1">
          <mxGeometry x="220" y="924" width="150" height="88" as="geometry" />
        </mxCell>
        <mxCell id="pb4MG57_TkeJyTTyKb9r-55" value="&lt;div&gt;- students: int&lt;br&gt;&lt;/div&gt;&lt;div&gt;- timeslot: char&lt;br&gt;&lt;/div&gt;&lt;div&gt;- room: Room&lt;/div&gt;&lt;span style=&quot;white-space: pre;&quot;&gt;&lt;/span&gt;" style="text;strokeColor=none;fillColor=none;align=left;verticalAlign=top;spacingLeft=4;spacingRight=4;overflow=hidden;rotatable=0;points=[[0,0.5],[1,0.5]];portConstraint=eastwest;whiteSpace=wrap;html=1;" vertex="1" parent="pb4MG57_TkeJyTTyKb9r-54">
          <mxGeometry y="26" width="150" height="54" as="geometry" />
        </mxCell>
        <mxCell id="pb4MG57_TkeJyTTyKb9r-56" value="" style="line;strokeWidth=1;fillColor=none;align=left;verticalAlign=middle;spacingTop=-1;spacingLeft=3;spacingRight=3;rotatable=0;labelPosition=right;points=[];portConstraint=eastwest;strokeColor=inherit;" vertex="1" parent="pb4MG57_TkeJyTTyKb9r-54">
          <mxGeometry y="80" width="150" height="8" as="geometry" />
        </mxCell>
        <mxCell id="pb4MG57_TkeJyTTyKb9r-93" style="edgeStyle=orthogonalEdgeStyle;rounded=0;orthogonalLoop=1;jettySize=auto;html=1;endArrow=none;startFill=0;exitX=0.5;exitY=0;exitDx=0;exitDy=0;" edge="1" parent="WIyWlLk6GJQsqaUBKTNV-1" source="pb4MG57_TkeJyTTyKb9r-58">
          <mxGeometry relative="1" as="geometry">
            <mxPoint x="506" y="680" as="targetPoint" />
            <Array as="points">
              <mxPoint x="896" y="753" />
              <mxPoint x="506" y="753" />
            </Array>
          </mxGeometry>
        </mxCell>
        <mxCell id="pb4MG57_TkeJyTTyKb9r-58" value="Student&lt;span style=&quot;white-space: pre;&quot;&gt;&#x9;&lt;/span&gt;" style="swimlane;fontStyle=1;align=center;verticalAlign=top;childLayout=stackLayout;horizontal=1;startSize=30;horizontalStack=0;resizeParent=1;resizeParentMax=0;resizeLast=0;collapsible=1;marginBottom=0;whiteSpace=wrap;html=1;" vertex="1" parent="WIyWlLk6GJQsqaUBKTNV-1">
          <mxGeometry x="766" y="810" width="260" height="138" as="geometry" />
        </mxCell>
        <mxCell id="pb4MG57_TkeJyTTyKb9r-59" value="&lt;div&gt;- plannedPresentations: List&amp;lt;Presentation&amp;gt;&lt;/div&gt;&lt;div&gt;- wishedPresentations: List&amp;lt;Presentation&amp;gt;&lt;/div&gt;&lt;div&gt;- surname: String&lt;/div&gt;&lt;div&gt;- name: String&lt;/div&gt;&lt;div&gt;- schoolClass: String&lt;br&gt;&lt;/div&gt;&lt;div&gt;- id: int&lt;br&gt;&lt;/div&gt;" style="text;strokeColor=none;fillColor=none;align=left;verticalAlign=top;spacingLeft=4;spacingRight=4;overflow=hidden;rotatable=0;points=[[0,0.5],[1,0.5]];portConstraint=eastwest;whiteSpace=wrap;html=1;" vertex="1" parent="pb4MG57_TkeJyTTyKb9r-58">
          <mxGeometry y="30" width="260" height="100" as="geometry" />
        </mxCell>
        <mxCell id="pb4MG57_TkeJyTTyKb9r-60" value="" style="line;strokeWidth=1;fillColor=none;align=left;verticalAlign=middle;spacingTop=-1;spacingLeft=3;spacingRight=3;rotatable=0;labelPosition=right;points=[];portConstraint=eastwest;strokeColor=inherit;" vertex="1" parent="pb4MG57_TkeJyTTyKb9r-58">
          <mxGeometry y="130" width="260" height="8" as="geometry" />
        </mxCell>
        <mxCell id="pb4MG57_TkeJyTTyKb9r-62" value="GUI" style="swimlane;fontStyle=1;align=center;verticalAlign=top;childLayout=stackLayout;horizontal=1;startSize=30;horizontalStack=0;resizeParent=1;resizeParentMax=0;resizeLast=0;collapsible=1;marginBottom=0;whiteSpace=wrap;html=1;" vertex="1" parent="WIyWlLk6GJQsqaUBKTNV-1">
          <mxGeometry x="921" y="114" width="160" height="78" as="geometry" />
        </mxCell>
        <mxCell id="pb4MG57_TkeJyTTyKb9r-63" value="&lt;div&gt;gui: GUI&lt;/div&gt;&lt;div&gt;dataholder: DataHolder&lt;br&gt;&lt;/div&gt;" style="text;strokeColor=none;fillColor=none;align=left;verticalAlign=top;spacingLeft=4;spacingRight=4;overflow=hidden;rotatable=0;points=[[0,0.5],[1,0.5]];portConstraint=eastwest;whiteSpace=wrap;html=1;" vertex="1" parent="pb4MG57_TkeJyTTyKb9r-62">
          <mxGeometry y="30" width="160" height="40" as="geometry" />
        </mxCell>
        <mxCell id="pb4MG57_TkeJyTTyKb9r-64" value="" style="line;strokeWidth=1;fillColor=none;align=left;verticalAlign=middle;spacingTop=-1;spacingLeft=3;spacingRight=3;rotatable=0;labelPosition=right;points=[];portConstraint=eastwest;strokeColor=inherit;" vertex="1" parent="pb4MG57_TkeJyTTyKb9r-62">
          <mxGeometry y="70" width="160" height="8" as="geometry" />
        </mxCell>
        <mxCell id="pb4MG57_TkeJyTTyKb9r-73" style="edgeStyle=orthogonalEdgeStyle;rounded=0;orthogonalLoop=1;jettySize=auto;html=1;endArrow=diamond;endFill=1;" edge="1" parent="WIyWlLk6GJQsqaUBKTNV-1" source="pb4MG57_TkeJyTTyKb9r-66" target="pb4MG57_TkeJyTTyKb9r-29">
          <mxGeometry relative="1" as="geometry" />
        </mxCell>
        <mxCell id="pb4MG57_TkeJyTTyKb9r-66" value="&amp;lt;&amp;lt;Interface&amp;gt;&amp;gt; Writer" style="swimlane;fontStyle=1;align=center;verticalAlign=top;childLayout=stackLayout;horizontal=1;startSize=26;horizontalStack=0;resizeParent=1;resizeParentMax=0;resizeLast=0;collapsible=1;marginBottom=0;whiteSpace=wrap;html=1;" vertex="1" parent="WIyWlLk6GJQsqaUBKTNV-1">
          <mxGeometry x="-30" y="450" width="180" height="70" as="geometry" />
        </mxCell>
        <mxCell id="pb4MG57_TkeJyTTyKb9r-67" value="" style="line;strokeWidth=1;fillColor=none;align=left;verticalAlign=middle;spacingTop=-1;spacingLeft=3;spacingRight=3;rotatable=0;labelPosition=right;points=[];portConstraint=eastwest;strokeColor=inherit;" vertex="1" parent="pb4MG57_TkeJyTTyKb9r-66">
          <mxGeometry y="26" width="180" height="8" as="geometry" />
        </mxCell>
        <mxCell id="pb4MG57_TkeJyTTyKb9r-68" value="+ readFile(Path: List&amp;lt;String&amp;gt; " style="text;strokeColor=none;fillColor=none;align=left;verticalAlign=top;spacingLeft=4;spacingRight=4;overflow=hidden;rotatable=0;points=[[0,0.5],[1,0.5]];portConstraint=eastwest;whiteSpace=wrap;html=1;" vertex="1" parent="pb4MG57_TkeJyTTyKb9r-66">
          <mxGeometry y="34" width="180" height="36" as="geometry" />
        </mxCell>
        <mxCell id="pb4MG57_TkeJyTTyKb9r-70" value="PDFWriter" style="swimlane;fontStyle=1;align=center;verticalAlign=top;childLayout=stackLayout;horizontal=1;startSize=26;horizontalStack=0;resizeParent=1;resizeParentMax=0;resizeLast=0;collapsible=1;marginBottom=0;whiteSpace=wrap;html=1;" vertex="1" parent="WIyWlLk6GJQsqaUBKTNV-1">
          <mxGeometry x="-27" y="342" width="160" height="34" as="geometry" />
        </mxCell>
        <mxCell id="pb4MG57_TkeJyTTyKb9r-71" value="" style="line;strokeWidth=1;fillColor=none;align=left;verticalAlign=middle;spacingTop=-1;spacingLeft=3;spacingRight=3;rotatable=0;labelPosition=right;points=[];portConstraint=eastwest;strokeColor=inherit;" vertex="1" parent="pb4MG57_TkeJyTTyKb9r-70">
          <mxGeometry y="26" width="160" height="8" as="geometry" />
        </mxCell>
        <mxCell id="pb4MG57_TkeJyTTyKb9r-78" style="edgeStyle=orthogonalEdgeStyle;rounded=0;orthogonalLoop=1;jettySize=auto;html=1;endArrow=none;startFill=0;exitX=0.594;exitY=-0.005;exitDx=0;exitDy=0;exitPerimeter=0;" edge="1" parent="WIyWlLk6GJQsqaUBKTNV-1" source="pb4MG57_TkeJyTTyKb9r-54">
          <mxGeometry relative="1" as="geometry">
            <mxPoint x="506" y="680" as="targetPoint" />
            <Array as="points">
              <mxPoint x="308" y="923" />
              <mxPoint x="308" y="827" />
              <mxPoint x="506" y="827" />
            </Array>
          </mxGeometry>
        </mxCell>
        <mxCell id="pb4MG57_TkeJyTTyKb9r-79" style="edgeStyle=orthogonalEdgeStyle;rounded=0;orthogonalLoop=1;jettySize=auto;html=1;endArrow=none;startFill=0;" edge="1" parent="WIyWlLk6GJQsqaUBKTNV-1" source="pb4MG57_TkeJyTTyKb9r-44">
          <mxGeometry relative="1" as="geometry">
            <mxPoint x="506" y="680" as="targetPoint" />
            <Array as="points">
              <mxPoint x="606" y="827" />
              <mxPoint x="506" y="827" />
            </Array>
          </mxGeometry>
        </mxCell>
        <mxCell id="pb4MG57_TkeJyTTyKb9r-86" value="Presentation" style="swimlane;fontStyle=1;align=center;verticalAlign=top;childLayout=stackLayout;horizontal=1;startSize=26;horizontalStack=0;resizeParent=1;resizeParentMax=0;resizeLast=0;collapsible=1;marginBottom=0;whiteSpace=wrap;html=1;" vertex="1" parent="WIyWlLk6GJQsqaUBKTNV-1">
          <mxGeometry x="60" y="690" width="130" height="108" as="geometry" />
        </mxCell>
        <mxCell id="pb4MG57_TkeJyTTyKb9r-87" value="&lt;div&gt;- id: int&lt;br&gt;&lt;/div&gt;&lt;div&gt;- title: String&lt;/div&gt;&lt;div&gt;- capacity: int&lt;/div&gt;&lt;div&gt;- presenter: String&lt;br&gt;&lt;/div&gt;&lt;span style=&quot;white-space: pre;&quot;&gt;&lt;/span&gt;" style="text;strokeColor=none;fillColor=none;align=left;verticalAlign=top;spacingLeft=4;spacingRight=4;overflow=hidden;rotatable=0;points=[[0,0.5],[1,0.5]];portConstraint=eastwest;whiteSpace=wrap;html=1;" vertex="1" parent="pb4MG57_TkeJyTTyKb9r-86">
          <mxGeometry y="26" width="130" height="74" as="geometry" />
        </mxCell>
        <mxCell id="pb4MG57_TkeJyTTyKb9r-88" value="" style="line;strokeWidth=1;fillColor=none;align=left;verticalAlign=middle;spacingTop=-1;spacingLeft=3;spacingRight=3;rotatable=0;labelPosition=right;points=[];portConstraint=eastwest;strokeColor=inherit;" vertex="1" parent="pb4MG57_TkeJyTTyKb9r-86">
          <mxGeometry y="100" width="130" height="8" as="geometry" />
        </mxCell>
        <mxCell id="pb4MG57_TkeJyTTyKb9r-91" style="edgeStyle=orthogonalEdgeStyle;rounded=0;orthogonalLoop=1;jettySize=auto;html=1;exitX=1;exitY=0.5;exitDx=0;exitDy=0;endArrow=diamond;startFill=0;endFill=1;" edge="1" parent="WIyWlLk6GJQsqaUBKTNV-1" source="pb4MG57_TkeJyTTyKb9r-87">
          <mxGeometry relative="1" as="geometry">
            <mxPoint x="506" y="680" as="targetPoint" />
            <Array as="points">
              <mxPoint x="506" y="753" />
              <mxPoint x="506" y="706" />
            </Array>
          </mxGeometry>
        </mxCell>
        <mxCell id="pb4MG57_TkeJyTTyKb9r-94" style="edgeStyle=orthogonalEdgeStyle;rounded=0;orthogonalLoop=1;jettySize=auto;html=1;entryX=0.5;entryY=1;entryDx=0;entryDy=0;endArrow=none;startFill=0;startArrow=none;" edge="1" parent="WIyWlLk6GJQsqaUBKTNV-1" source="pb4MG57_TkeJyTTyKb9r-36" target="pb4MG57_TkeJyTTyKb9r-62">
          <mxGeometry relative="1" as="geometry">
            <mxPoint x="1001" y="218.75399999999996" as="targetPoint" />
            <Array as="points">
              <mxPoint x="1001" y="400" />
            </Array>
          </mxGeometry>
        </mxCell>
        <mxCell id="pb4MG57_TkeJyTTyKb9r-145" style="edgeStyle=orthogonalEdgeStyle;rounded=0;orthogonalLoop=1;jettySize=auto;html=1;endArrow=diamond;endFill=1;" edge="1" parent="WIyWlLk6GJQsqaUBKTNV-1">
          <mxGeometry relative="1" as="geometry">
            <mxPoint x="350" y="400" as="sourcePoint" />
            <mxPoint x="640" y="400" as="targetPoint" />
            <Array as="points">
              <mxPoint x="639" y="400" />
            </Array>
          </mxGeometry>
        </mxCell>
        <mxCell id="pb4MG57_TkeJyTTyKb9r-151" style="edgeStyle=orthogonalEdgeStyle;rounded=0;orthogonalLoop=1;jettySize=auto;html=1;endArrow=diamond;endFill=1;" edge="1" parent="WIyWlLk6GJQsqaUBKTNV-1" source="pb4MG57_TkeJyTTyKb9r-147">
          <mxGeometry relative="1" as="geometry">
            <mxPoint x="821" y="400" as="targetPoint" />
            <Array as="points">
              <mxPoint x="950" y="400" />
            </Array>
          </mxGeometry>
        </mxCell>
        <mxCell id="pb4MG57_TkeJyTTyKb9r-147" value="RoomManagementUnit" style="swimlane;fontStyle=1;align=center;verticalAlign=top;childLayout=stackLayout;horizontal=1;startSize=26;horizontalStack=0;resizeParent=1;resizeParentMax=0;resizeLast=0;collapsible=1;marginBottom=0;whiteSpace=wrap;html=1;" vertex="1" parent="WIyWlLk6GJQsqaUBKTNV-1">
          <mxGeometry x="820" y="540" width="260" height="80" as="geometry" />
        </mxCell>
        <mxCell id="pb4MG57_TkeJyTTyKb9r-149" value="" style="line;strokeWidth=1;fillColor=none;align=left;verticalAlign=middle;spacingTop=-1;spacingLeft=3;spacingRight=3;rotatable=0;labelPosition=right;points=[];portConstraint=eastwest;strokeColor=inherit;" vertex="1" parent="pb4MG57_TkeJyTTyKb9r-147">
          <mxGeometry y="26" width="260" height="8" as="geometry" />
        </mxCell>
        <mxCell id="pb4MG57_TkeJyTTyKb9r-150" value="&lt;div&gt;+ executeRoomManagement(BoomData): planned: int &lt;br&gt;&lt;/div&gt;" style="text;strokeColor=none;fillColor=none;align=left;verticalAlign=top;spacingLeft=4;spacingRight=4;overflow=hidden;rotatable=0;points=[[0,0.5],[1,0.5]];portConstraint=eastwest;whiteSpace=wrap;html=1;" vertex="1" parent="pb4MG57_TkeJyTTyKb9r-147">
          <mxGeometry y="34" width="260" height="46" as="geometry" />
        </mxCell>
        <mxCell id="pb4MG57_TkeJyTTyKb9r-154" style="edgeStyle=orthogonalEdgeStyle;rounded=0;orthogonalLoop=1;jettySize=auto;html=1;endArrow=block;endFill=0;dashed=1;" edge="1" parent="WIyWlLk6GJQsqaUBKTNV-1" source="pb4MG57_TkeJyTTyKb9r-70">
          <mxGeometry relative="1" as="geometry">
            <mxPoint x="52" y="450" as="targetPoint" />
          </mxGeometry>
        </mxCell>
      </root>
    </mxGraphModel>
  </diagram>
</mxfile>
